<svg id="Camada_1" data-name="Camada 1" xmlns="http://www.w3.org/2000/svg" viewBox="0 0 456 483.86"><defs><style>.cls-1{fill:#8c6239;}.cls-2{fill:#cfcfcf;}.cls-3{fill:#b4b4b4;}.cls-4{fill:#999;}.cls-5{fill:#7e7e7e;}.cls-6{fill:#636363;}.cls-7{fill:#484848;}.cls-8{fill:#2d2d2d;}.cls-9{fill:#e9e9e9;}.cls-10{fill:#121212;}.cls-11{fill:#fff;}</style></defs><path class="cls-1" d="M314.07,5.09c6,1.91,12.43,2.38,18.37,4.73,30.63,12.11,48.47,35.21,57.1,66.23,2.55,9.16,3.26,18.58,3.39,28,.3,21.72.43,43.45.9,65.18.09,4.14-2.37,6.35-4.79,8.68-9.57,9.21-21.16,15.16-33.43,19.8-31.35,11.86-64,16.75-97.35,18.17-29.21,1.24-58.24-.21-86.94-5.75-20.09-3.87-39.81-9.11-57.66-19.67-1.08-.64-2.12-1.35-3.21-2-9.9-5.61-14.82-13-14.12-25.46,1-18.66-.34-37.45-.46-56.19-.19-28.89,8.47-54.53,29-75.36C139.84,16.38,158,7.68,179.42,7c19-.63,38.09-.76,57.14-1.1,1.87-.6,3.79-.17,5.69-.3h7.29c2.6-.25,5.27.54,7.83-.49h.94a9.66,9.66,0,0,0,6.62,0h.94a9.66,9.66,0,0,0,6.62,0h.94a9.66,9.66,0,0,0,6.62,0H281a9.63,9.63,0,0,0,6.61,0h.95a9.63,9.63,0,0,0,6.61,0h.95a7.25,7.25,0,0,0,5.67,0Z" transform="translate(-18.25 -5.09)"/><path class="cls-2" d="M249.78,5.88h-7.55c-.3-.18-.39-.36-.29-.53s.21-.26.31-.26h7.56q.47.29.3.54C250,5.8,249.89,5.88,249.78,5.88Z" transform="translate(-18.25 -5.09)"/><path class="cls-3" d="M249.78,5.88c0-.26,0-.53,0-.79h7.56C255,7.06,252.32,5.72,249.78,5.88Z" transform="translate(-18.25 -5.09)"/><path class="cls-4" d="M264.93,5.09a5.31,5.31,0,0,1-6.62,0Z" transform="translate(-18.25 -5.09)"/><path class="cls-5" d="M272.49,5.09c-2.21,1.45-4.41,1.62-6.62,0Z" transform="translate(-18.25 -5.09)"/><path class="cls-6" d="M280.05,5.09c-2.21,1.42-4.41,1.61-6.62,0Z" transform="translate(-18.25 -5.09)"/><path class="cls-7" d="M287.61,5.09a5.4,5.4,0,0,1-6.61,0Z" transform="translate(-18.25 -5.09)"/><path class="cls-8" d="M295.17,5.09a5.43,5.43,0,0,1-6.61,0Z" transform="translate(-18.25 -5.09)"/><path class="cls-9" d="M242.25,5.09c0,.26,0,.53,0,.79h-5.67c0-.27,0-.53,0-.79Z" transform="translate(-18.25 -5.09)"/><path class="cls-10" d="M301.79,5.09a4.26,4.26,0,0,1-5.67,0Z" transform="translate(-18.25 -5.09)"/><path d="M178,435c-12.07,0-28-9-38.55-20.59l.08,0c-.6-.82-1.18-1.67-1.75-2.52a80.32,80.32,0,0,1-9.7-23.59,65.67,65.67,0,0,1-1.17-9.67c-.93-19.87,3.22-38.73,9.62-57.29.68-2,1.25-3.29,3.84-1.81a9.46,9.46,0,0,0,9.12.38c2.95-1.54,4.61-.62,6.85,1.43,16.19,14.79,35.16,21,56.39,17v.06a5.6,5.6,0,0,1,.59-.07c.14,0,.28-.06.43-.07s.28,0,.42-.06a6.85,6.85,0,0,1,1.26-.26c.12,0,.23-.09.35-.12a6.7,6.7,0,0,1,.93-.28s0,0,0-.07c27.27-6.62,43.94-24.45,50.13-52.13.53-2.39,1.31-3.31,3.9-3.43,16.51-.77,33-1.81,49.46-3.55,34.3-3.63,68.25-9.1,101.05-20.12,13-4.35,25.55-9.7,36.37-18.44s13.08-19.68,5.54-28.55a41.42,41.42,0,0,0-8.38-7.57c-14.42-9.73-30.69-14.9-47.29-19.29-7.4-2-7.33-1.94-10.72,4.34a40.77,40.77,0,0,1-4.18,6.25c-6.71,8.23-15.51,13.69-24.92,18.24-29.19,14.12-60.54,19.68-92.46,22.44a388.74,388.74,0,0,1-85.3-1.78c-22.66-3-44.9-7.82-65.81-17.42-10.93-5-21-11.2-28.36-21.24-2-2.75-1.63-7.76-5-8.32s-6.93,1.53-10.37,2.62c-15.6,4.92-31,10.34-44.33,20.23-15.15,11.22-15.49,24.25-.8,35.9,6.58,5.22,14.08,8.82,21.85,11.89,23.53,9.32,48.14,14.25,73.06,17.89,3.47.5,5.75,1.17,5.7,5.5s1.18,8.4,2.64,12.38c.78,2.12.51,3.29-1.35,4.72-3.3,2.53-5.43,6.33-4.41,10.32a14.46,14.46,0,0,1-.4,8.11C125.26,329.46,121,346.22,121,364.5c0,2,.07,4.06.17,6.07a98.08,98.08,0,0,0,1.06,15.63A79.25,79.25,0,0,0,131.59,413a12.56,12.56,0,0,0-9,4.13,33,33,0,0,0-2.53,42.08c5.09,6.91,12.11,11.35,19.25,15.67,21.08,12.76,43.49,17.82,67.74,11.22,17.31-4.72,33-13,47.69-23.08,2.62-1.79,4.29-1.92,6.9,0,9.57,6.94,20.09,12.3,30.83,17.15,10.52,4.75,21.56,8,33.12,8.65,26.15,1.38,48.38-8.55,67.28-25.7,13.3-12.08,13.28-32.14,1.35-45.55a12.77,12.77,0,0,0-6.19-4.11c-1.22-.33-2.64-.76-3.54.37s0,2.13.56,3.05c1.68,3,3.65,5.88,5.16,9,3,6.09,3.76,12.23-.11,18.36-6.19,9.79-15.39,12.41-26.62,7.59-8-3.46-14.86-8.75-21.73-14-12.64-9.68-25.74-18.62-41-23.81-12.43-4.24-25.14-6.21-36.69,1.67-4.84,3.3-7.88,3.82-11.91-.25-1.14-1.15-3-1.65-4.57-2.31-10.88-4.49-21.6-2.64-32.22,1-3.44,1.18-12.13,5.46-15.37,7m-29,20c-8,8-17.81,14-27.5,14a20.49,20.49,0,0,1-9.1-38.86C141.91,428.34,159,440,171,441Z" transform="translate(-18.25 -5.09)"/><path class="cls-1" d="M128.68,284.34c18.52,12.48,177-2.14,193.89-4.11,35.31-4.12,70.24-10.32,104-22.82,13.34-4.94,26.28-11,37.42-20.93s13.46-22.32,5.7-32.37a44.44,44.44,0,0,0-8.62-8.6c-14.84-11-31.59-16.9-48.66-21.88-7.62-2.22-7.55-2.19-11,4.92a45.38,45.38,0,0,1-4.3,7.09c-6.9,9.34-16,15.53-25.64,20.69-30,16-62.3,22.33-95.15,25.46a362.75,362.75,0,0,1-87.78-2c-23.32-3.45-46.2-8.87-67.72-19.76-11.24-5.69-21.66-12.7-29.18-24.1-2.06-3.11-1.68-8.8-5.13-9.43s-7.12,1.74-10.66,3c-16.06,5.58-31.89,11.73-45.63,23-15.59,12.72-15.93,27.51-.82,40.72,6.77,5.93,14.49,10,22.48,13.5,24.22,10.57,51,26.39,76.84,27.72" transform="translate(-18.25 -5.09)"/><path class="cls-11" d="M245.5,283c-34.62,0-69.31,5.48-98.5,2-1.25,3.49,0-.29,0,3.5,0,22.92,24.4,41.5,54.5,41.5S256,311.42,256,288.5a32,32,0,0,0-.5-5.56Q250.52,283,245.5,283Z" transform="translate(-18.25 -5.09)"/></svg>